<svg width="140" height="140" fill="none" xmlns="http://www.w3.org/2000/svg"><g clip-path="url(#prefix__clip0_109_2)" fill="#FF5722"><path d="M73.281 27.83c13.13 4.306 24.71 11.993 33.781 22.006 1.494-1.338 3.266-2.122 5.173-2.122.56 0 1.107.08 1.639.21 3.358-9.372 4.551-19.468 3.017-29.733-.008-.063-.026-.123-.035-.187A70.062 70.062 0 0095.822 4.93c-8.326 6.181-15.977 13.882-22.541 22.9zM41.536 24.297c2.4-.226 4.822-.383 7.283-.383 6.236 0 12.293.74 18.106 2.115 6.72-9.144 14.564-16.918 23.088-23.11A69.85 69.85 0 0069.999 0a69.853 69.853 0 00-23.124 3.929c-3.89 5.266-7.105 11.05-9.592 17.21 1.835.639 3.333 1.73 4.253 3.158zM33.758 36.525c-.328.078-.654.141-.978.194a78.16 78.16 0 00-1.21 13.594c0 13.366 3.399 25.92 9.317 36.917a16.541 16.541 0 013.941-.018c.712-13.806 4.153-28.109 10.651-41.924a116.115 116.115 0 016.94-12.635 78.678 78.678 0 00-17.495-1.958c-1.077 0-2.14.061-3.206.109-1.342 2.617-4.25 4.838-7.96 5.721zM68.825 34.431a116.634 116.634 0 00-6.681 12.227c-6.613 14.058-10.049 28.616-10.67 42.646 2.564 1.394 4.63 3.324 6.08 5.526 19.116-4.072 35.215-14.395 45.912-28.099a18.018 18.018 0 01-.86-5.543c0-1.602.212-3.134.576-4.558-9.204-10.163-20.99-17.927-34.357-22.199zM30.303 94.738c.829-1.96 2.161-3.574 3.81-4.817a77.725 77.725 0 01-9.249-36.844c0-5.753.688-11.337 1.877-16.732-1.563-.504-2.896-1.329-3.858-2.41a78.514 78.514 0 00-16.53 6.938A69.718 69.718 0 000 70.001c0 5.975.753 11.772 2.16 17.306 8.324 4.514 17.71 7.538 27.674 8.772.13-.45.282-.899.47-1.341zM112.235 74.66c-1.384 0-2.699-.415-3.887-1.152-11.08 14.478-28.147 25.286-48.447 29.066a11.643 11.643 0 01-.898 4.296c-.291.685-.656 1.32-1.06 1.924 13.51 11.975 31.174 19.349 50.578 19.645a70.276 70.276 0 0014.805-13.118c.152-1.971.258-3.955.258-5.966 0-12.717-3.081-24.692-8.446-35.318a7.199 7.199 0 01-2.903.622z"/><path d="M53.229 113.268c1.942 9.568 5.347 18.504 10.099 26.406 2.198.206 4.42.326 6.673.326a69.666 69.666 0 0033.969-8.795c-.319.003-.631.03-.948.03-18.935-.002-36.273-6.761-49.793-17.967zM39.46 113.097c-4.94-2.087-8.392-6.065-9.6-10.41-9.4-1.702-18.2-5.016-25.967-9.664 8.134 23.356 28.286 41.074 53.05 45.749-4.463-7.297-7.744-15.507-9.79-24.283-2.5.122-5.138-.312-7.693-1.392zM30.032 20.877c.657-.157 1.311-.259 1.956-.322a78.56 78.56 0 018.196-13.893A70.274 70.274 0 009.786 34.31a78.61 78.61 0 0111.539-5.4c.492-3.56 3.941-6.898 8.707-8.033zM140 70c0-18.707-7.353-35.687-19.309-48.245a61.64 61.64 0 01.683 3.74c1.366 9.151.562 18.17-2.006 26.662 1.546 2.39 2.497 5.552 2.497 9.031 0 2.98-.699 5.727-1.872 7.958a78.242 78.242 0 017.482 33.43c0 2.683-.149 5.328-.412 7.944C135.197 99.08 140 85.106 140 70zM41.94 107.218c4.133 1.747 8.696.294 10.192-3.245 1.496-3.539-.641-7.824-4.774-9.57-4.132-1.748-8.695-.295-10.191 3.244-1.496 3.539.641 7.824 4.773 9.571zM112.235 66.895c2.252 0 4.078-2.556 4.078-5.709 0-3.153-1.826-5.709-4.078-5.709-2.253 0-4.079 2.556-4.079 5.71 0 3.152 1.826 5.708 4.079 5.708zM32.686 32.029c2.46-.587 4.099-2.553 3.66-4.392-.438-1.838-2.787-2.854-5.247-2.267-2.46.586-4.099 2.552-3.66 4.391.438 1.84 2.787 2.854 5.247 2.268z"/></g><defs><clipPath id="prefix__clip0_109_2"><path fill="#fff" d="M0 0h140v140H0z"/></clipPath></defs></svg>