<svg width="573" height="159" fill="none" xmlns="http://www.w3.org/2000/svg"><path d="M83.712 31.488c14.855 4.872 27.959 13.569 38.221 24.898 1.691-1.514 3.695-2.402 5.853-2.402a7.87 7.87 0 011.854.238c3.799-10.603 5.149-22.026 3.414-33.64-.01-.072-.03-.14-.04-.212a79.272 79.272 0 00-23.798-14.792c-9.42 6.993-18.078 15.706-25.504 25.91zM47.795 27.49c2.716-.255 5.456-.433 8.24-.433 7.055 0 13.91.838 20.486 2.393C84.123 19.104 93 10.308 102.643 3.302A79.03 79.03 0 0079.999 0a79.033 79.033 0 00-26.164 4.445c-4.4 5.959-8.038 12.504-10.852 19.471 2.076.724 3.77 1.959 4.812 3.574zM38.995 41.325c-.371.088-.74.16-1.107.22a88.44 88.44 0 00-1.368 15.381c0 15.122 3.845 29.326 10.541 41.768a18.712 18.712 0 014.459-.02c.806-15.62 4.698-31.803 12.05-47.433a131.378 131.378 0 017.852-14.297 89.02 89.02 0 00-19.794-2.215c-1.219 0-2.421.07-3.628.123-1.517 2.962-4.808 5.474-9.005 6.474zM78.67 38.956a131.941 131.941 0 00-7.56 13.834c-7.481 15.906-11.368 32.378-12.072 48.251 2.902 1.578 5.239 3.761 6.88 6.252 21.629-4.607 39.844-16.287 51.947-31.791a20.356 20.356 0 01-.974-6.272c0-1.813.24-3.546.652-5.157C107.13 52.575 93.795 43.79 78.671 38.956zM35.086 107.189c.937-2.217 2.445-4.044 4.312-5.45a87.938 87.938 0 01-10.466-41.686c0-6.51.778-12.827 2.124-18.931-1.769-.57-3.277-1.504-4.366-2.726-6.576 1.922-12.85 4.55-18.703 7.85A78.88 78.88 0 00.8 79.2c0 6.76.852 13.32 2.445 19.58 9.416 5.108 20.035 8.53 31.31 9.926.146-.511.32-1.017.531-1.518zM127.786 84.472c-1.566 0-3.053-.469-4.397-1.303-12.538 16.38-31.848 28.609-54.815 32.887a13.164 13.164 0 01-1.017 4.859c-.329.776-.741 1.494-1.198 2.178 15.285 13.548 35.271 21.892 57.225 22.227a79.498 79.498 0 0016.751-14.843c.172-2.229.291-4.475.291-6.75 0-14.388-3.486-27.936-9.556-39.96a8.139 8.139 0 01-3.284.705zM61.024 128.154c2.198 10.827 6.05 20.937 11.427 29.877 2.487.233 5.002.369 7.55.369 13.951 0 27.049-3.619 38.434-9.951-.361.004-.714.034-1.073.034-21.423-.002-41.04-7.65-56.338-20.329zM45.446 127.961c-5.59-2.361-9.495-6.862-10.86-11.778-10.638-1.926-20.593-5.675-29.38-10.934 9.202 26.425 32.002 46.472 60.02 51.761-5.05-8.256-8.76-17.545-11.076-27.474-2.83.138-5.813-.353-8.704-1.575zM34.779 23.621a16.461 16.461 0 012.214-.365 88.882 88.882 0 019.273-15.718 79.51 79.51 0 00-34.394 31.28 88.94 88.94 0 0113.056-6.11c.556-4.026 4.459-7.803 9.851-9.087zM159.2 79.201c0-21.166-8.32-40.378-21.846-54.587.297 1.394.558 2.804.772 4.232 1.545 10.354.636 20.558-2.27 30.166 1.749 2.704 2.826 6.282 2.826 10.218 0 3.372-.792 6.48-2.118 9.004a88.542 88.542 0 018.465 37.824c0 3.035-.169 6.028-.466 8.987 9.203-12.942 14.637-28.754 14.637-45.844zM48.253 121.31c4.675 1.976 9.838.333 11.53-3.671 1.694-4.004-.725-8.853-5.4-10.829-4.676-1.977-9.839-.334-11.531 3.67-1.693 4.005.725 8.853 5.4 10.83zM127.786 75.687c2.548 0 4.614-2.891 4.614-6.459 0-3.567-2.066-6.459-4.614-6.459-2.549 0-4.615 2.892-4.615 6.46 0 3.567 2.066 6.458 4.615 6.458zM37.782 36.238c2.783-.663 4.638-2.888 4.142-4.968-.496-2.08-3.155-3.23-5.938-2.566-2.783.664-4.637 2.888-4.141 4.969.496 2.08 3.154 3.229 5.937 2.565z" fill="#FF5722"/><path d="M215.319 92.44c0 1.191-.119 3.694-1.669 6.555-3.635 6.614-11.204 7.508-13.23 7.747-1.37.179-2.801.298-4.231.298-8.343 0-13.051-2.801-15.852-5.066-1.132-.953-1.668-1.549-3.337-3.516l7.986-5.006c.178.18 1.013 1.133 1.847 1.788 2.741 2.265 6.794 3.516 10.31 3.516.476 0 1.907 0 3.277-.417.298-.06 4.47-1.251 4.47-4.47 0-3.873-5.602-3.992-9.356-4.529a52.142 52.142 0 01-5.96-1.072c-3.039-.775-5.84-1.907-7.926-4.41a9.538 9.538 0 01-1.788-3.1 13.124 13.124 0 01-.536-3.694c0-.357.06-1.728.239-2.92.476-2.682 1.609-4.827 3.635-6.734 2.086-1.967 6.197-4.41 13.11-4.41 2.563 0 8.165.298 13.886 4.172 1.43.953 2.264 1.668 4.648 3.754l-7.747 5.542c-2.324-2.264-3.933-3.575-7.092-4.589-.536-.119-2.145-.596-3.933-.596-4.291 0-6.257 2.504-6.257 4.47 0 1.132.596 1.907.894 2.205 1.43 1.55 3.754 1.49 7.687 2.086 2.384.357 4.708.834 7.032 1.37 1.49.298 6.913 1.371 9.058 6.496.298.775.835 2.384.835 4.53zm34.147 13.646h-9.118V89.817c0-2.384.119-5.542-2.145-7.091-.775-.537-1.669-.775-2.563-.775-.477 0-1.668.119-2.741.834-1.967 1.37-2.205 3.516-2.205 7.807v15.494h-9.178V64.013h9.178l.059 14.243c.179-.179.954-1.073 1.788-1.669 2.861-2.205 5.721-2.443 7.032-2.443 4.172 0 6.556 1.967 7.569 3.099a7.176 7.176 0 011.49 2.503c.536 1.37.834 2.92.834 5.9v20.44zm35.339 0h-8.999v-2.801a35.7 35.7 0 01-1.907 1.311c-1.132.775-3.754 2.325-7.628 2.325-5.601 0-8.164-3.04-9.177-5.126a9.913 9.913 0 01-1.013-4.35c0-5.602 5.006-8.283 6.376-8.88 2.324-1.012 6.556-1.847 12.455-2.92v-1.728c0-1.072-.178-3.754-3.516-3.754-2.681 0-3.933 1.251-4.41 2.264-.119.239-.298.716-.417 1.371h-9.177c.119-1.251.179-3.933 2.503-6.257 2.562-2.503 5.959-2.98 7.032-3.159 1.788-.238 3.278-.238 3.993-.238 4.35 0 10.25 1.013 12.336 5.483.357.834.655 1.668.655 3.456v18.176c0 2.682.119 3.695.894 4.827zm-9.893-14.898l-5.899 1.966c-.358.12-.715.239-1.073.418-2.265.953-2.861 2.264-2.861 3.456 0 .179.06.834.358 1.43.358.596 1.251 1.728 3.158 1.728 1.669 0 3.099-.953 3.516-1.251 2.682-1.907 2.801-4.827 2.801-7.747zm35.161-8.463l-3.04.477c-.298.06-1.728.239-2.86.656-2.443.834-2.861 2.383-2.861 4.708v17.52h-9.117V74.978h8.879v3.218c.775-.655 1.609-1.49 3.635-2.324 2.503-1.013 4.231-1.132 5.364-1.251v8.105zm33.968 9.714h-22.228c0 .298-.06 1.013.119 1.848.715 3.635 3.277 5.899 6.972 5.899.537 0 1.728-.059 2.98-.536 3.099-1.073 4.469-4.231 4.887-5.006l6.912 3.576c-1.251 1.847-1.906 2.682-2.622 3.516-4.588 5.065-10.548 5.482-12.872 5.482-.953 0-3.158-.059-5.602-.834-6.913-2.145-10.131-8.224-10.131-15.256 0-1.907.12-7.687 3.993-12.157 1.907-2.145 5.185-4.946 11.979-4.946 2.085 0 8.283.238 12.157 5.661 3.516 4.827 3.396 11.263 3.456 12.753zm-9.475-5.72c-.12-1.014-.298-4.172-3.397-5.543-1.252-.596-2.265-.596-2.801-.596-3.635 0-5.304 2.682-5.781 3.755-.238.536-.476 1.191-.715 2.383h12.694zm68.175-8.761c0 1.37-.179 5.006-2.503 8.343-3.933 5.602-9.893 6.02-15.971 6.02h-7.032v13.765h-10.548V64.013h20.857c3.993 0 7.748.477 10.966 3.278.417.357 1.192 1.013 1.907 2.085.894 1.371 2.324 4.41 2.324 8.582zm-10.429-.06c0-2.026-.596-3.039-1.132-3.814-1.669-2.324-4.708-2.324-7.211-2.324h-6.734v12.753h6.376c1.848 0 2.622 0 3.576-.178 3.695-.596 5.185-2.861 5.125-6.437zm33.253 4.828l-3.039.476c-.298.06-1.728.239-2.861.656-2.443.834-2.86 2.383-2.86 4.708v17.52h-9.118V74.978h8.88v3.218c.774-.655 1.609-1.49 3.635-2.324 2.503-1.013 4.231-1.132 5.363-1.251v8.105zm35.816 7.806c0 7.032-3.337 11.085-5.483 12.873-1.787 1.489-5.423 3.635-11.263 3.635-1.609 0-7.926-.298-12.217-4.47-1.847-1.788-4.469-5.602-4.469-12.097 0-1.788.119-6.854 3.635-11.085 2.146-2.562 6.436-5.78 14.303-5.304 3.635.18 6.853 1.013 9.773 3.338 3.874 3.158 5.721 8.104 5.721 13.11zm-9.297.298c0-4.708-1.489-7.091-3.277-8.343-.835-.596-2.086-1.192-4.529-1.192-.418 0-2.146.12-3.457.894-1.668.954-3.635 3.635-3.635 8.224 0 3.04 1.013 5.304 1.609 6.257.715 1.073 2.503 3.04 5.959 3.04 5.066 0 7.33-4.231 7.33-8.88zm60.548 15.256h-9.118V89.758c0-3.218 0-5.066-.835-6.377-.715-1.192-2.145-1.788-3.456-1.788-.775 0-2.92.179-4.052 2.205-.716 1.252-.656 2.563-.656 5.364v16.924h-9.118V87.612c0-2.98-.417-4.29-1.788-5.184-.774-.537-1.728-.775-2.681-.775-.417 0-1.609 0-2.622.774-1.907 1.43-1.967 3.874-1.967 5.9v17.759h-9.058V74.978h9.058l.06 3.218c.536-.655.894-1.072 1.549-1.609 1.192-.953 3.456-2.443 7.211-2.443.715 0 3.933.06 6.198 1.49.953.596 1.728 1.37 2.503 2.145 1.132-.953 1.549-1.251 2.205-1.668a13.756 13.756 0 017.032-1.967c1.072 0 5.423.06 7.985 3.397 1.49 1.847 1.55 3.814 1.55 8.283v20.262zm38.318-15.613c-.059 5.303-1.728 8.82-2.86 10.607-1.728 2.622-3.874 3.993-4.887 4.47-1.013.477-2.86 1.132-5.78 1.132-3.278 0-4.947-.953-7.628-2.622v12.813h-9.297V74.978h8.164l.06 3.04c.477-.596.655-.894 1.311-1.371 1.132-.954 3.576-2.384 7.39-2.384 1.787 0 5.959.298 9.356 3.933 3.158 3.338 4.171 7.926 4.171 12.277zm-8.82-.12c0-.893.12-4.946-2.145-7.627-.715-.835-1.669-1.49-2.741-1.788-.596-.18-1.073-.18-1.311-.18-3.397 0-6.556 3.1-6.556 9.834 0 .655-.119 4.41 1.609 6.972.477.656 1.073 1.252 1.788 1.669.417.298 1.49.834 2.92.834 3.159 0 4.41-2.264 4.947-3.218.715-1.31 1.489-3.158 1.489-6.496zM573 81.355h-6.079V95.3c0 1.251-.059 1.966.239 2.503.536 1.013 1.966 1.013 2.145 1.013 1.073 0 2.146-.06 3.218-.06v7.092c-.596.119-2.741.477-4.827.477-.655 0-1.311 0-1.907-.06-.834-.06-3.575 0-5.661-1.907-2.384-2.086-2.265-5.244-2.265-8.105V81.295h-4.529v-5.602h4.529V65.98h9.058v9.773H573v5.602z" fill="#303841"/></svg>